<svg width="34" height="34" viewBox="0 0 34 34" fill="none" xmlns="http://www.w3.org/2000/svg">
<g id="search_24px">
<path id="icon/action/search_24px" fill-rule="evenodd" clip-rule="evenodd" d="M20.3118 19.5653H21.1424L26.3888 24.8223L24.8223 26.3888L19.5653 21.1424V20.3118L19.2814 20.0174C18.0828 21.0478 16.5268 21.6681 14.834 21.6681C11.0595 21.6681 8 18.6085 8 14.834C8 11.0595 11.0595 8 14.834 8C18.6085 8 21.6681 11.0595 21.6681 14.834C21.6681 16.5268 21.0478 18.0828 20.0174 19.2814L20.3118 19.5653ZM10.1029 14.834C10.1029 17.452 12.2162 19.5652 14.8342 19.5652C17.4521 19.5652 19.5654 17.452 19.5654 14.834C19.5654 12.216 17.4521 10.1027 14.8342 10.1027C12.2162 10.1027 10.1029 12.216 10.1029 14.834Z" fill="white"/>
</g>
</svg>
