<svg width="35" height="35" viewBox="0 0 35 35" fill="none" xmlns="http://www.w3.org/2000/svg">
<g id="shopping_cart_24px">
<path id="icon/action/shopping_cart_24px" fill-rule="evenodd" clip-rule="evenodd" d="M26.682 17.4563C26.1861 18.3604 25.2236 18.9584 24.1299 18.9584H13.2653L11.6611 21.875H29.1611V24.7917H11.6611C9.44447 24.7917 8.04447 22.4146 9.10905 20.4604L11.0778 16.9021L5.8278 5.83335H2.91113V2.91669H7.67988L9.05072 5.83335H30.634C31.7424 5.83335 32.4424 7.02919 31.9028 7.99169L26.682 17.4563ZM28.155 8.75002H10.4362L13.8925 16.0417H24.13L28.155 8.75002ZM11.661 26.25C10.0569 26.25 8.75894 27.5625 8.75894 29.1667C8.75894 30.7709 10.0569 32.0834 11.661 32.0834C13.2652 32.0834 14.5777 30.7709 14.5777 29.1667C14.5777 27.5625 13.2652 26.25 11.661 26.25ZM23.3423 29.1667C23.3423 27.5625 24.6402 26.25 26.2444 26.25C27.8485 26.25 29.161 27.5625 29.161 29.1667C29.161 30.7709 27.8485 32.0834 26.2444 32.0834C24.6402 32.0834 23.3423 30.7709 23.3423 29.1667Z" fill="white"/>
</g>
</svg>
