<svg width="131" height="62" viewBox="0 0 131 62" fill="none" xmlns="http://www.w3.org/2000/svg">
<path d="M18.405 9.27634H112.595L112.559 41.8001H18.3685L18.405 9.27634Z" fill="black"/>
<path d="M64.9344 61.3143L18.3685 41.8001H112.559L64.9344 61.3143Z" fill="black"/>
<path d="M131 9.27634H105.017V19.0335H124.504L131 9.27634Z" fill="black"/>
<path d="M123.421 20.1176H100.686V30.9588H118.008L123.421 20.1176Z" fill="black"/>
<path d="M116.926 32.043H95.2727V41.8001L112.559 41.8001L116.926 32.043Z" fill="black"/>
<path d="M0 9.27634H25.9835V19.0335H6.49587L0 9.27634Z" fill="black"/>
<path d="M7.57851 20.1176H30.314V30.9588H12.9917L7.57851 20.1176Z" fill="black"/>
<path d="M14.0744 32.043H35.7273V41.8001L18.3685 41.8001L14.0744 32.043Z" fill="black"/>
<mask id="path-2-outside-1" maskUnits="userSpaceOnUse" x="24.511" y="13.0006" width="79" height="36" fill="black">
<rect fill="white" x="24.511" y="13.0006" width="79" height="36"/>
<path d="M43.629 46.9479H41.2402L44.4866 38.3644H46.9367L50.1831 46.9479H47.7942L47.243 45.4151H44.1803L43.629 46.9479ZM44.7316 43.821H46.6917L45.7116 40.9394L44.7316 43.821Z"/>
<path d="M50.7952 38.3644H55.9404C56.798 38.3644 57.4187 38.5606 57.8025 38.953C58.1945 39.3372 58.3905 39.9585 58.3905 40.8168V41.9204C58.3905 42.5989 58.2762 43.1262 58.0475 43.5022C57.827 43.8783 57.4717 44.1276 56.9817 44.2502L58.513 46.9479H56.1242L54.7154 44.3728H53.0003V46.9479H50.7952V38.3644ZM56.1854 40.8168C56.1854 40.3263 55.9404 40.0811 55.4504 40.0811H53.0003V42.6561H55.4504C55.9404 42.6561 56.1854 42.4109 56.1854 41.9204V40.8168Z"/>
<path d="M66.9626 42.1657L65.2475 45.2312H63.5324L61.8174 42.1657V46.9479H59.6123V38.3644H61.9399L64.39 42.9014L66.8401 38.3644H69.1677V46.9479H66.9626V42.1657Z"/>
<path d="M72.1739 46.9479H69.785L73.0315 38.3644H75.4816L78.728 46.9479H76.3391L75.7878 45.4151H72.7252L72.1739 46.9479ZM73.2765 43.821H75.2366L74.2565 40.9394L73.2765 43.821Z"/>
<path d="M79.0828 45.1699C81.3205 45.2925 82.8355 45.3538 83.6277 45.3538C83.8156 45.3538 83.9626 45.3007 84.0688 45.1944C84.1831 45.0799 84.2403 44.9287 84.2403 44.7407V43.6371H81.4226C80.5651 43.6371 79.9403 43.445 79.5483 43.0608C79.1644 42.6684 78.9725 42.043 78.9725 41.1847V40.8168C78.9725 39.9585 79.1644 39.3372 79.5483 38.953C79.9403 38.5606 80.5651 38.3644 81.4226 38.3644H85.7226V40.0811H81.9127C81.4226 40.0811 81.1776 40.3263 81.1776 40.8168V41.0621C81.1776 41.5525 81.4226 41.7978 81.9127 41.7978H84.1178C84.9181 41.7978 85.5062 41.9858 85.8819 42.3618C86.2575 42.7379 86.4454 43.3265 86.4454 44.1276V44.7407C86.4454 45.5418 86.2575 46.1304 85.8819 46.5064C85.5062 46.8825 84.9181 47.0705 84.1178 47.0705C83.7013 47.0705 83.2602 47.0623 82.7947 47.046L81.6676 46.9969C80.8346 46.956 79.973 46.8988 79.0828 46.8252V45.1699Z"/>
<path d="M37.6391 36.1006H32.0415V18.6696H25.511V14.3119H44.1696V18.6696H37.6391V36.1006Z"/>
<path d="M60.344 20.226C60.344 18.9809 59.7221 18.3584 58.4782 18.3584H53.1916C51.9477 18.3584 51.3257 18.9809 51.3257 20.226V30.1865C51.3257 31.4316 51.9477 32.0542 53.1916 32.0542H58.4782C59.7221 32.0542 60.344 31.4316 60.344 30.1865V20.226ZM65.9416 30.1865C65.9416 32.3654 65.4441 33.9529 64.4489 34.949C63.4745 35.9243 61.8989 36.4119 59.7221 36.4119H51.9477C49.7708 36.4119 48.1849 35.9243 47.1897 34.949C46.2153 33.9529 45.7281 32.3654 45.7281 30.1865V20.226C45.7281 18.0471 46.2153 16.47 47.1897 15.4947C48.1849 14.4986 49.7708 14.0006 51.9477 14.0006H59.7221C61.8989 14.0006 63.4745 14.4986 64.4489 15.4947C65.4441 16.47 65.9416 18.0471 65.9416 20.226V30.1865Z"/>
<path d="M88.0356 36.1006H82.127L74.6636 23.0274V36.1006H69.066V14.3119H74.9745L82.438 27.3851V14.3119H88.0356V36.1006Z"/>
<path d="M102.044 36.1006H90.8489V31.7429H93.6477V18.6696H90.8489V14.3119H102.044V18.6696H99.2453V31.7429H102.044V36.1006Z"/>
</mask>
<path d="M43.629 46.9479H41.2402L44.4866 38.3644H46.9367L50.1831 46.9479H47.7942L47.243 45.4151H44.1803L43.629 46.9479ZM44.7316 43.821H46.6917L45.7116 40.9394L44.7316 43.821Z" fill="white"/>
<path d="M50.7952 38.3644H55.9404C56.798 38.3644 57.4187 38.5606 57.8025 38.953C58.1945 39.3372 58.3905 39.9585 58.3905 40.8168V41.9204C58.3905 42.5989 58.2762 43.1262 58.0475 43.5022C57.827 43.8783 57.4717 44.1276 56.9817 44.2502L58.513 46.9479H56.1242L54.7154 44.3728H53.0003V46.9479H50.7952V38.3644ZM56.1854 40.8168C56.1854 40.3263 55.9404 40.0811 55.4504 40.0811H53.0003V42.6561H55.4504C55.9404 42.6561 56.1854 42.4109 56.1854 41.9204V40.8168Z" fill="white"/>
<path d="M66.9626 42.1657L65.2475 45.2312H63.5324L61.8174 42.1657V46.9479H59.6123V38.3644H61.9399L64.39 42.9014L66.8401 38.3644H69.1677V46.9479H66.9626V42.1657Z" fill="white"/>
<path d="M72.1739 46.9479H69.785L73.0315 38.3644H75.4816L78.728 46.9479H76.3391L75.7878 45.4151H72.7252L72.1739 46.9479ZM73.2765 43.821H75.2366L74.2565 40.9394L73.2765 43.821Z" fill="white"/>
<path d="M79.0828 45.1699C81.3205 45.2925 82.8355 45.3538 83.6277 45.3538C83.8156 45.3538 83.9626 45.3007 84.0688 45.1944C84.1831 45.0799 84.2403 44.9287 84.2403 44.7407V43.6371H81.4226C80.5651 43.6371 79.9403 43.445 79.5483 43.0608C79.1644 42.6684 78.9725 42.043 78.9725 41.1847V40.8168C78.9725 39.9585 79.1644 39.3372 79.5483 38.953C79.9403 38.5606 80.5651 38.3644 81.4226 38.3644H85.7226V40.0811H81.9127C81.4226 40.0811 81.1776 40.3263 81.1776 40.8168V41.0621C81.1776 41.5525 81.4226 41.7978 81.9127 41.7978H84.1178C84.9181 41.7978 85.5062 41.9858 85.8819 42.3618C86.2575 42.7379 86.4454 43.3265 86.4454 44.1276V44.7407C86.4454 45.5418 86.2575 46.1304 85.8819 46.5064C85.5062 46.8825 84.9181 47.0705 84.1178 47.0705C83.7013 47.0705 83.2602 47.0623 82.7947 47.046L81.6676 46.9969C80.8346 46.956 79.973 46.8988 79.0828 46.8252V45.1699Z" fill="white"/>
<path d="M37.6391 36.1006H32.0415V18.6696H25.511V14.3119H44.1696V18.6696H37.6391V36.1006Z" fill="white"/>
<path d="M60.344 20.226C60.344 18.9809 59.7221 18.3584 58.4782 18.3584H53.1916C51.9477 18.3584 51.3257 18.9809 51.3257 20.226V30.1865C51.3257 31.4316 51.9477 32.0542 53.1916 32.0542H58.4782C59.7221 32.0542 60.344 31.4316 60.344 30.1865V20.226ZM65.9416 30.1865C65.9416 32.3654 65.4441 33.9529 64.4489 34.949C63.4745 35.9243 61.8989 36.4119 59.7221 36.4119H51.9477C49.7708 36.4119 48.1849 35.9243 47.1897 34.949C46.2153 33.9529 45.7281 32.3654 45.7281 30.1865V20.226C45.7281 18.0471 46.2153 16.47 47.1897 15.4947C48.1849 14.4986 49.7708 14.0006 51.9477 14.0006H59.7221C61.8989 14.0006 63.4745 14.4986 64.4489 15.4947C65.4441 16.47 65.9416 18.0471 65.9416 20.226V30.1865Z" fill="white"/>
<path d="M88.0356 36.1006H82.127L74.6636 23.0274V36.1006H69.066V14.3119H74.9745L82.438 27.3851V14.3119H88.0356V36.1006Z" fill="white"/>
<path d="M102.044 36.1006H90.8489V31.7429H93.6477V18.6696H90.8489V14.3119H102.044V18.6696H99.2453V31.7429H102.044V36.1006Z" fill="white"/>
<path d="M43.629 46.9479H41.2402L44.4866 38.3644H46.9367L50.1831 46.9479H47.7942L47.243 45.4151H44.1803L43.629 46.9479ZM44.7316 43.821H46.6917L45.7116 40.9394L44.7316 43.821Z" stroke="#515151" stroke-width="2" mask="url(#path-2-outside-1)"/>
<path d="M50.7952 38.3644H55.9404C56.798 38.3644 57.4187 38.5606 57.8025 38.953C58.1945 39.3372 58.3905 39.9585 58.3905 40.8168V41.9204C58.3905 42.5989 58.2762 43.1262 58.0475 43.5022C57.827 43.8783 57.4717 44.1276 56.9817 44.2502L58.513 46.9479H56.1242L54.7154 44.3728H53.0003V46.9479H50.7952V38.3644ZM56.1854 40.8168C56.1854 40.3263 55.9404 40.0811 55.4504 40.0811H53.0003V42.6561H55.4504C55.9404 42.6561 56.1854 42.4109 56.1854 41.9204V40.8168Z" stroke="#515151" stroke-width="2" mask="url(#path-2-outside-1)"/>
<path d="M66.9626 42.1657L65.2475 45.2312H63.5324L61.8174 42.1657V46.9479H59.6123V38.3644H61.9399L64.39 42.9014L66.8401 38.3644H69.1677V46.9479H66.9626V42.1657Z" stroke="#515151" stroke-width="2" mask="url(#path-2-outside-1)"/>
<path d="M72.1739 46.9479H69.785L73.0315 38.3644H75.4816L78.728 46.9479H76.3391L75.7878 45.4151H72.7252L72.1739 46.9479ZM73.2765 43.821H75.2366L74.2565 40.9394L73.2765 43.821Z" stroke="#515151" stroke-width="2" mask="url(#path-2-outside-1)"/>
<path d="M79.0828 45.1699C81.3205 45.2925 82.8355 45.3538 83.6277 45.3538C83.8156 45.3538 83.9626 45.3007 84.0688 45.1944C84.1831 45.0799 84.2403 44.9287 84.2403 44.7407V43.6371H81.4226C80.5651 43.6371 79.9403 43.445 79.5483 43.0608C79.1644 42.6684 78.9725 42.043 78.9725 41.1847V40.8168C78.9725 39.9585 79.1644 39.3372 79.5483 38.953C79.9403 38.5606 80.5651 38.3644 81.4226 38.3644H85.7226V40.0811H81.9127C81.4226 40.0811 81.1776 40.3263 81.1776 40.8168V41.0621C81.1776 41.5525 81.4226 41.7978 81.9127 41.7978H84.1178C84.9181 41.7978 85.5062 41.9858 85.8819 42.3618C86.2575 42.7379 86.4454 43.3265 86.4454 44.1276V44.7407C86.4454 45.5418 86.2575 46.1304 85.8819 46.5064C85.5062 46.8825 84.9181 47.0705 84.1178 47.0705C83.7013 47.0705 83.2602 47.0623 82.7947 47.046L81.6676 46.9969C80.8346 46.956 79.973 46.8988 79.0828 46.8252V45.1699Z" stroke="#515151" stroke-width="2" mask="url(#path-2-outside-1)"/>
<path d="M37.6391 36.1006H32.0415V18.6696H25.511V14.3119H44.1696V18.6696H37.6391V36.1006Z" stroke="#515151" stroke-width="2" mask="url(#path-2-outside-1)"/>
<path d="M60.344 20.226C60.344 18.9809 59.7221 18.3584 58.4782 18.3584H53.1916C51.9477 18.3584 51.3257 18.9809 51.3257 20.226V30.1865C51.3257 31.4316 51.9477 32.0542 53.1916 32.0542H58.4782C59.7221 32.0542 60.344 31.4316 60.344 30.1865V20.226ZM65.9416 30.1865C65.9416 32.3654 65.4441 33.9529 64.4489 34.949C63.4745 35.9243 61.8989 36.4119 59.7221 36.4119H51.9477C49.7708 36.4119 48.1849 35.9243 47.1897 34.949C46.2153 33.9529 45.7281 32.3654 45.7281 30.1865V20.226C45.7281 18.0471 46.2153 16.47 47.1897 15.4947C48.1849 14.4986 49.7708 14.0006 51.9477 14.0006H59.7221C61.8989 14.0006 63.4745 14.4986 64.4489 15.4947C65.4441 16.47 65.9416 18.0471 65.9416 20.226V30.1865Z" stroke="#515151" stroke-width="2" mask="url(#path-2-outside-1)"/>
<path d="M88.0356 36.1006H82.127L74.6636 23.0274V36.1006H69.066V14.3119H74.9745L82.438 27.3851V14.3119H88.0356V36.1006Z" stroke="#515151" stroke-width="2" mask="url(#path-2-outside-1)"/>
<path d="M102.044 36.1006H90.8489V31.7429H93.6477V18.6696H90.8489V14.3119H102.044V18.6696H99.2453V31.7429H102.044V36.1006Z" stroke="#515151" stroke-width="2" mask="url(#path-2-outside-1)"/>
<path d="M44.7749 0H79.4145V9.27634H33.259L44.7749 0Z" fill="black"/>
<path d="M86.2251 0H51.5855V9.27634H97.7409L86.2251 0Z" fill="black"/>
<path d="M59.4369 9.27633V9.26761C59.4444 9.27557 59.452 9.28346 59.4597 9.29129L59.4596 9.29137L59.4671 9.29873C59.891 9.71385 60.5086 9.86683 61.2016 9.86683H63.4641C64.1558 9.86683 64.7739 9.71436 65.1933 9.29503C65.206 9.28226 65.2186 9.26931 65.2309 9.25618V9.27633V9.73178L65.6843 9.77416C66.3434 9.83576 66.9684 9.86683 67.559 9.86683C68.0095 9.86683 68.4275 9.79223 68.7775 9.6102L68.7147 9.77633H69.4386H71.2033H71.5547L71.6738 9.44569L71.962 8.64507H73.5217L73.8099 9.44569L73.9289 9.77633H74.2804H76.0451H76.769L76.5127 9.09931L74.1145 2.76424L73.9922 2.44127H73.6469H71.8368H71.4915L71.3692 2.76424L69.7604 7.01399V2.94127V2.44127H69.2604H66.4549H65.9549V2.94127V4.20828V4.70828H66.4549H67.1314V7.59977C66.6674 7.59885 66.215 7.58433 65.7741 7.55631V4.66079C65.7741 3.96866 65.6184 3.35058 65.1933 2.93159C64.7743 2.50648 64.1562 2.35077 63.4641 2.35077H61.2016C60.5062 2.35077 59.8871 2.50789 59.4634 2.93162L59.8169 3.28517L59.4634 2.93162C59.044 3.35095 58.8916 3.96905 58.8916 4.66079V7.50932H56.1337V2.94127V2.44127H55.6337H54.0046H53.5046V2.94127V9.27633V9.77633H54.0046H58.9369H59.4369V9.27633ZM63.1021 4.61778C63.1186 4.61778 63.1323 4.61848 63.1434 4.61948C63.1444 4.63057 63.1451 4.64424 63.1451 4.66079V7.55681C63.1451 7.57336 63.1444 7.58703 63.1434 7.59811C63.1323 7.59912 63.1186 7.59982 63.1021 7.59982H61.5636C61.547 7.59982 61.5334 7.59912 61.5223 7.59812C61.5213 7.58703 61.5206 7.57336 61.5206 7.55681V4.66079C61.5206 4.64424 61.5213 4.63057 61.5223 4.61948C61.5334 4.61848 61.547 4.61778 61.5636 4.61778H63.1021ZM72.7162 6.46856L72.7418 6.39331L72.7675 6.46856H72.7162Z" fill="white" stroke="#515151"/>
</svg>
